<svg width="16" height="17" viewBox="0 0 16 17" fill="none" xmlns="http://www.w3.org/2000/svg">
<rect y="0.5" width="16" height="16" rx="4"/>
<path d="M7.00042 8.73734V2.47814C7.00042 2.12184 6.71158 1.83301 6.35528 1.83301C6.05108 1.83301 5.78821 2.04551 5.72448 2.34296L4.35315 8.74254C4.34028 8.80257 4.31918 8.86054 4.29045 8.91477L1.85182 13.5211C1.61677 13.9651 1.93863 14.4997 2.44102 14.4997H5.13561C5.44655 14.4997 5.71622 14.2847 5.78552 13.9815L6.82718 9.42431L6.97352 8.92481C6.99135 8.86391 7.00042 8.80081 7.00042 8.73734Z" stroke="#41454E" stroke-linecap="round" stroke-linejoin="round"/>
<path d="M4.33398 8.83301L6.66732 9.83301" stroke="#41454E" stroke-linecap="round" stroke-linejoin="round"/>
<path d="M9 8.73734V2.47814C9 2.12184 9.28883 1.83301 9.64513 1.83301C9.94933 1.83301 10.2122 2.04551 10.2759 2.34296L11.6473 8.74254C11.6601 8.80257 11.6812 8.86054 11.71 8.91477L14.1486 13.5211C14.3836 13.9651 14.0618 14.4997 13.5594 14.4997H10.8648C10.5539 14.4997 10.2842 14.2847 10.2149 13.9815L9.17323 9.42431L9.0269 8.92481C9.00907 8.86391 9 8.80081 9 8.73734Z" stroke="#41454E" stroke-linecap="round" stroke-linejoin="round"/>
<path d="M11.6654 8.83301L9.33203 9.83301" stroke="#41454E" stroke-linecap="round" stroke-linejoin="round"/>
</svg>
