<svg width="16" height="17" viewBox="0 0 16 17" fill="none" xmlns="http://www.w3.org/2000/svg">
<rect y="0.5" width="16" height="16" rx="4"/>
<path d="M2 8.49902C2 11.0132 2 13.6036 2.87868 14.3846C3.75736 15.1657 5.17157 15.1657 8 15.1657C10.8284 15.1657 12.2426 15.1657 13.1213 14.3846C14 13.6036 14 11.0132 14 8.49902" stroke="#41454E"/>
<path d="M9.7742 9.96761L13.779 8.76616C14.1761 8.64705 14.3746 8.5875 14.5005 8.44477C14.525 8.41697 14.5472 8.38717 14.5668 8.35568C14.6673 8.19402 14.6673 7.98678 14.6673 7.57229C14.6673 5.93886 14.6673 5.12214 14.2187 4.57074C14.1324 4.46476 14.0356 4.36789 13.9296 4.28166C13.3782 3.83301 12.5615 3.83301 10.928 3.83301H5.07327C3.43983 3.83301 2.62312 3.83301 2.07171 4.28166C1.96573 4.36789 1.86887 4.46476 1.78264 4.57074C1.33398 5.12214 1.33398 5.93886 1.33398 7.57229C1.33398 7.98678 1.33398 8.19402 1.4345 8.35568C1.45408 8.38717 1.47626 8.41697 1.50079 8.44477C1.62675 8.5875 1.82525 8.64705 2.22225 8.76615L6.22711 9.96761" stroke="#41454E"/>
<path d="M4.33398 3.83301C4.88295 3.8191 5.44015 3.46961 5.62695 2.95322C5.63269 2.93734 5.63858 2.91967 5.65036 2.88432L5.66747 2.83301C5.69559 2.74864 5.70966 2.70643 5.72471 2.66901C5.91683 2.19109 6.36706 1.86658 6.88121 1.83545C6.92148 1.83301 6.96595 1.83301 7.05489 1.83301H8.94671C9.03565 1.83301 9.08013 1.83301 9.12039 1.83545C9.63454 1.86658 10.0848 2.19109 10.2769 2.66901C10.2919 2.70644 10.306 2.74863 10.3341 2.83301L10.3512 2.88432C10.363 2.91946 10.3689 2.93738 10.3747 2.95322C10.5615 3.46961 11.1184 3.8191 11.6673 3.83301" stroke="#41454E"/>
<path d="M9.33398 8.83301H6.66732C6.48322 8.83301 6.33398 8.98225 6.33398 9.16634V10.6073C6.33398 10.7436 6.41697 10.8662 6.54352 10.9168L7.01028 11.1035C7.64604 11.3578 8.35526 11.3578 8.99103 11.1035L9.45778 10.9168C9.58433 10.8662 9.66732 10.7436 9.66732 10.6073V9.16634C9.66732 8.98225 9.51808 8.83301 9.33398 8.83301Z" stroke="#41454E" stroke-linecap="round"/>
</svg>
