<svg width="18" height="18" viewBox="0 0 18 18" fill="none" xmlns="http://www.w3.org/2000/svg">
<path fill-rule="evenodd" clip-rule="evenodd" d="M0.666016 9.00033C0.666016 4.39795 4.39698 0.666992 8.99935 0.666992C13.6017 0.666992 17.3327 4.39795 17.3327 9.00033C17.3327 13.6027 13.6017 17.3337 8.99935 17.3337C4.39698 17.3337 0.666016 13.6027 0.666016 9.00033ZM6.74375 6.74424C7.06919 6.4188 7.59683 6.4188 7.92226 6.74424L8.99967 7.82165L10.0771 6.74424C10.4025 6.4188 10.9302 6.4188 11.2556 6.74424C11.581 7.06968 11.581 7.59731 11.2556 7.92275L10.1782 9.00016L11.2556 10.0776C11.581 10.403 11.581 10.9306 11.2556 11.2561C10.9302 11.5815 10.4025 11.5815 10.0771 11.2561L8.99967 10.1787L7.92227 11.2561C7.59683 11.5815 7.06919 11.5815 6.74375 11.2561C6.41832 10.9306 6.41832 10.403 6.74375 10.0776L7.82116 9.00016L6.74375 7.92275C6.41831 7.59731 6.41831 7.06968 6.74375 6.74424Z" fill="#8D92A0"/>
</svg>
