<svg width="54" height="57" viewBox="0 0 54 57" fill="none" xmlns="http://www.w3.org/2000/svg">
<path fill-rule="evenodd" clip-rule="evenodd" d="M34.0526 0.616067C34.2935 0.232681 34.7145 0 35.1673 0H52.6847C53.7203 0 54.3505 1.14041 53.7995 2.01725L19.9509 55.8774C19.71 56.2608 19.2889 56.4935 18.8361 56.4935H1.31877C0.283156 56.4935 -0.347068 55.3531 0.203982 54.4763L34.0526 0.616067ZM16.7977 19.0431C16.3578 19.7157 15.352 19.6503 15.003 18.9263L6.59218 1.48179C6.26153 0.796016 6.76121 0.000367795 7.52254 0.000368015L27.3434 0.000373761C28.1642 0.000373999 28.6571 0.91165 28.2078 1.59859L16.7977 19.0431ZM39.631 35.1547C39.2637 34.4414 38.2589 34.4009 37.8354 35.0824L25.4602 54.9984C25.0327 55.6864 25.5274 56.5763 26.3375 56.5763L48.9664 56.5763C49.7396 56.5763 50.2386 55.7581 49.8847 55.0707L39.631 35.1547Z" fill="url(#paint0_linear_1665_11094)"/>
<defs>
<linearGradient id="paint0_linear_1665_11094" x1="9.14947" y1="-4.21146" x2="54.5817" y2="71.4024" gradientUnits="userSpaceOnUse">
<stop stop-color="#D2CBFF"/>
<stop offset="0.499584" stop-color="#7251F0"/>
<stop offset="1" stop-color="#5074FF"/>
</linearGradient>
</defs>
</svg>
