<svg width="75" height="92" viewBox="0 0 75 92" fill="none" xmlns="http://www.w3.org/2000/svg">
<path d="M27.1167 3.70317C30.2347 2.56491 33.0211 0.17998 36.4899 0.269028C39.4059 0.528427 41.9026 2.22421 44.5213 3.39344C46.9266 4.55493 49.5033 5.40669 51.7065 6.96309C55.2629 9.4061 57.6263 13.4365 58.1866 17.7495C59.0976 21.5747 56.8067 25.063 56.3074 28.7604C56.8563 28.8959 57.4052 29.0547 57.9579 29.2134C59.1929 31.2693 58.4496 33.7316 57.6568 35.8068C56.9135 37.7155 55.6937 39.6978 53.5934 40.2166C52.5451 43.6237 51.0319 46.9455 48.7867 49.7099C47.7499 50.9643 46.5301 52.1529 44.9559 52.6446C45.1808 56.1987 46.2481 59.9775 48.9811 62.3972C51.8133 64.9177 55.4497 66.145 58.785 67.8059C62.2118 69.401 65.4862 71.5808 67.7656 74.6858C68.5852 75.8086 69.3818 76.9624 70.0756 78.178C71.5012 80.6056 72.6104 83.2267 73.3575 85.9523C73.914 87.8881 74.1351 89.8975 74.1923 91.9108C73.125 91.9185 72.0615 91.9301 70.998 91.9301C68.5814 91.9379 66.1723 91.9572 63.7594 91.9495C61.9755 91.9572 60.1954 91.934 58.4153 91.9959C46.9609 91.9456 35.5064 91.9379 24.052 91.9882C20.5566 91.9456 17.0612 91.9379 13.5696 91.9688C11.172 91.9688 8.77815 91.965 6.38434 91.9456C5.30561 91.934 4.22687 91.9224 3.15194 91.965C2.36671 91.9495 1.58911 91.934 0.807691 91.9262C0.78482 89.3051 1.13551 86.6918 1.85212 84.1752C3.54075 78.782 6.50251 73.5359 11.172 70.2683C15.2811 67.3336 20.244 65.9708 24.437 63.1754C27.8409 60.8757 29.1636 56.6324 29.4304 52.6756C27.4559 52.1451 25.9731 50.6081 24.7 49.0749C22.6874 46.4538 21.2427 43.3604 20.6061 40.0966C18.4753 39.1868 17.3547 36.9606 16.6266 34.866C16.0167 33.1199 15.6013 31.0253 16.6038 29.345C17.0726 29.1515 17.5415 28.9501 18.0141 28.7604C16.3712 24.7843 15.5631 20.177 17.187 16.0576C17.4347 14.2456 17.0192 12.3021 17.9188 10.6024C19.596 6.85856 23.5298 5.04663 27.1167 3.6993V3.70317Z" fill="white"/>
</svg>
