<svg width="24" height="24" viewBox="0 0 24 24" fill="none" xmlns="http://www.w3.org/2000/svg">
<mask id="mask0_4523_11832" style="mask-type:alpha" maskUnits="userSpaceOnUse" x="0" y="0" width="24" height="24">
<rect width="24" height="24" fill="#D9D9D9"/>
</mask>
<g mask="url(#mask0_4523_11832)">
<path d="M11.9997 21C11.781 21 11.5978 20.926 11.4502 20.7781C11.3025 20.6303 11.2286 20.4471 11.2286 20.2286V16.1143C11.2286 15.8957 11.3025 15.7125 11.4505 15.5648C11.5984 15.4168 11.7817 15.3429 12.0003 15.3429C12.219 15.3429 12.4022 15.4168 12.5498 15.5648C12.6975 15.7125 12.7714 15.8957 12.7714 16.1143V17.4H20.2286C20.4471 17.4 20.6303 17.474 20.7781 17.6219C20.926 17.7699 21 17.9531 21 18.1717C21 18.3904 20.926 18.5736 20.7781 18.7212C20.6303 18.869 20.4471 18.9429 20.2286 18.9429H12.7714V20.2286C12.7714 20.4471 12.6975 20.6303 12.5495 20.7781C12.4016 20.926 12.2183 21 11.9997 21ZM3.77143 18.9429C3.55286 18.9429 3.36969 18.8689 3.22191 18.7209C3.07397 18.573 3 18.3897 3 18.1712C3 17.9524 3.07397 17.7693 3.22191 17.6217C3.36969 17.4739 3.55286 17.4 3.77143 17.4H7.88571C8.10429 17.4 8.28746 17.474 8.43523 17.6219C8.58317 17.7699 8.65714 17.9531 8.65714 18.1717C8.65714 18.3904 8.58317 18.5736 8.43523 18.7212C8.28746 18.869 8.10429 18.9429 7.88571 18.9429H3.77143ZM7.88546 14.8286C7.66671 14.8286 7.48354 14.7546 7.33594 14.6067C7.18817 14.4589 7.11429 14.2757 7.11429 14.0571V12.7714H3.77143C3.55286 12.7714 3.36969 12.6975 3.22191 12.5495C3.07397 12.4016 3 12.2183 3 11.9997C3 11.781 3.07397 11.5978 3.22191 11.4502C3.36969 11.3025 3.55286 11.2286 3.77143 11.2286H7.11429V9.94286C7.11429 9.72429 7.18826 9.54111 7.3362 9.39334C7.48414 9.2454 7.6674 9.17143 7.88597 9.17143C8.10471 9.17143 8.28789 9.2454 8.43549 9.39334C8.58326 9.54111 8.65714 9.72429 8.65714 9.94286V14.0571C8.65714 14.2757 8.58317 14.4589 8.43523 14.6067C8.28729 14.7546 8.10403 14.8286 7.88546 14.8286ZM12 12.7714C11.7814 12.7714 11.5983 12.6975 11.4505 12.5495C11.3025 12.4016 11.2286 12.2183 11.2286 11.9997C11.2286 11.781 11.3025 11.5978 11.4505 11.4502C11.5983 11.3025 11.7814 11.2286 12 11.2286H20.2286C20.4471 11.2286 20.6303 11.3025 20.7781 11.4505C20.926 11.5984 21 11.7817 21 12.0003C21 12.219 20.926 12.4022 20.7781 12.5498C20.6303 12.6975 20.4471 12.7714 20.2286 12.7714H12ZM16.114 8.65714C15.8953 8.65714 15.7121 8.58317 15.5645 8.43523C15.4167 8.28746 15.3429 8.10429 15.3429 7.88571V3.77143C15.3429 3.55286 15.4168 3.36969 15.5648 3.22191C15.7127 3.07397 15.896 3 16.1145 3C16.3333 3 16.5165 3.07397 16.6641 3.22191C16.8118 3.36969 16.8857 3.55286 16.8857 3.77143V5.05714H20.2286C20.4471 5.05714 20.6303 5.13111 20.7781 5.27906C20.926 5.427 21 5.61026 21 5.82883C21 6.04757 20.926 6.23074 20.7781 6.37834C20.6303 6.52611 20.4471 6.6 20.2286 6.6H16.8857V7.88571C16.8857 8.10429 16.8117 8.28746 16.6638 8.43523C16.5159 8.58317 16.3326 8.65714 16.114 8.65714ZM3.77143 6.6C3.55286 6.6 3.36969 6.52603 3.22191 6.37809C3.07397 6.23014 3 6.04689 3 5.82831C3 5.60957 3.07397 5.4264 3.22191 5.2788C3.36969 5.13103 3.55286 5.05714 3.77143 5.05714H12C12.2186 5.05714 12.4017 5.13111 12.5495 5.27906C12.6975 5.427 12.7714 5.61026 12.7714 5.82883C12.7714 6.04757 12.6975 6.23074 12.5495 6.37834C12.4017 6.52611 12.2186 6.6 12 6.6H3.77143Z" fill="#222222"/>
</g>
</svg>
