<svg width="16" height="16" viewBox="0 0 16 16" fill="none" xmlns="http://www.w3.org/2000/svg">
<path d="M13.2635 8.375C13.5809 8.0541 14.2233 7.27609 14.3975 6.85168C14.5717 6.42727 14.6634 5.9708 14.6672 5.5089C14.671 5.04701 14.5869 4.58894 14.4198 4.16142C14.2527 3.7339 14.006 3.3455 13.6939 3.01888C13.3819 2.69226 13.0109 2.43396 12.6024 2.25904C12.194 2.08413 11.7564 1.99612 11.3151 2.00013C10.8739 2.00415 10.4378 2.10011 10.0323 2.28242C9.62688 2.46474 9.26017 2.72975 8.9536 3.062L7.97988 4.08038L7.00615 3.062C6.38294 2.40985 5.5378 2.04349 4.65658 2.04349C3.77536 2.04349 2.93021 2.40985 2.307 3.062C1.68398 3.71435 1.33398 4.599 1.33398 5.52142C1.33398 6.44384 1.68398 7.3285 2.307 7.98084L8.25185 14L11.2148 11" stroke="white" stroke-width="1.5" stroke-linecap="round" stroke-linejoin="round"/>
</svg>
