<svg width="24" height="24" viewBox="0 0 24 24" fill="none" xmlns="http://www.w3.org/2000/svg">
<path d="M18.3154 12.3441C18.6963 11.9638 19.4672 11.0417 19.6762 10.5387C19.8852 10.0357 19.9952 9.4947 19.9998 8.94727C20.0045 8.39984 19.9035 7.85694 19.703 7.35026C19.5025 6.84357 19.2064 6.38324 18.832 5.99614C18.4575 5.60903 18.0122 5.30289 17.5221 5.09559C17.032 4.88829 16.5069 4.78397 15.9774 4.78873C15.4479 4.79349 14.9246 4.90722 14.438 5.1233C13.9515 5.33937 13.5114 5.65346 13.1435 6.04724L11.9751 7.25421L10.8066 6.04724C10.0587 5.27432 9.04457 4.84012 7.98711 4.84012C6.92965 4.84012 5.91547 5.27432 5.16762 6.04724C4.41999 6.82039 4 7.86887 4 8.96211C4 10.0553 4.41999 11.1038 5.16762 11.877L12.3014 19.0108L15.857 15.4552" stroke="white" stroke-width="1.2" stroke-linecap="round" stroke-linejoin="round"/>
</svg>
