<svg width="20" height="20" viewBox="0 0 20 20" fill="none" xmlns="http://www.w3.org/2000/svg">
<path d="M16.3634 3.63604C19.8781 7.15076 19.8781 12.8492 16.3634 16.364C12.8486 19.8787 7.15016 19.8787 3.63545 16.364C0.120727 12.8492 0.120727 7.15076 3.63545 3.63604C7.15016 0.121321 12.8486 0.121321 16.3634 3.63604Z" fill="white"/>
<path d="M12.3855 7.61313L9.99902 9.99961M9.99902 9.99961L7.61253 12.3861M9.99902 9.99961L12.3855 12.3861M9.99902 9.99961L7.61253 7.61313M16.3634 3.63604C19.8781 7.15076 19.8781 12.8492 16.3634 16.364C12.8486 19.8787 7.15016 19.8787 3.63545 16.364C0.120727 12.8492 0.120727 7.15076 3.63545 3.63604C7.15016 0.121321 12.8486 0.121321 16.3634 3.63604Z" stroke="#8D92A0" stroke-width="1.5" stroke-linecap="round"/>
</svg>
