<svg width="21" height="20" viewBox="0 0 21 20" fill="none" xmlns="http://www.w3.org/2000/svg">
<path d="M15.9 6.69936L16.2862 6.31316C16.9261 5.67328 17.9635 5.67328 18.6034 6.31316C19.2433 6.95304 19.2433 7.99048 18.6034 8.63036L18.2172 9.01656M15.9 6.69936C15.9 6.69936 15.9483 7.52003 16.6724 8.24416C17.3966 8.96828 18.2172 9.01656 18.2172 9.01656M15.9 6.69936L12.3495 10.2499C12.109 10.4904 11.9888 10.6106 11.8854 10.7432C11.7634 10.8996 11.6588 11.0688 11.5735 11.2478C11.5011 11.3996 11.4474 11.561 11.3398 11.8836L10.9955 12.9166L10.8841 13.2508M18.2172 9.01656L14.6667 12.5671C14.4262 12.8076 14.306 12.9278 14.1734 13.0312C14.017 13.1532 13.8478 13.2578 13.6687 13.3431C13.517 13.4154 13.3556 13.4692 13.033 13.5768L12 13.9211L11.6658 14.0325M11.6658 14.0325L11.3316 14.1439C11.1728 14.1968 10.9978 14.1555 10.8794 14.0372C10.7611 13.9188 10.7198 13.7438 10.7727 13.585L10.8841 13.2508M11.6658 14.0325L10.8841 13.2508" stroke="#8D92A0" stroke-width="1.2"/>
<path d="M7.41797 10.8333H9.5013" stroke="#8D92A0" stroke-width="1.2" stroke-linecap="round"/>
<path d="M7.41797 7.5H12.8346" stroke="#8D92A0" stroke-width="1.2" stroke-linecap="round"/>
<path d="M7.41797 14.1667H8.66797" stroke="#8D92A0" stroke-width="1.2" stroke-linecap="round"/>
<path d="M17.2737 2.64306C16.2974 1.66675 14.726 1.66675 11.5833 1.66675H9.91667C6.77397 1.66675 5.20262 1.66675 4.22631 2.64306C3.25 3.61937 3.25 5.19072 3.25 8.33341V11.6667C3.25 14.8094 3.25 16.3808 4.22631 17.3571C5.20262 18.3334 6.77397 18.3334 9.91667 18.3334H11.5833C14.726 18.3334 16.2974 18.3334 17.2737 17.3571C18.0596 16.5712 18.2129 15.3997 18.2428 13.3334" stroke="#8D92A0" stroke-width="1.2" stroke-linecap="round"/>
</svg>

