<svg width="21" height="20" viewBox="0 0 21 20" fill="none" xmlns="http://www.w3.org/2000/svg">
<path d="M2.16797 10.0002C2.16797 6.85747 2.16797 5.28612 3.14428 4.30981C4.12059 3.3335 5.69194 3.3335 8.83464 3.3335H12.168C15.3107 3.3335 16.882 3.3335 17.8583 4.30981C18.8346 5.28612 18.8346 6.85747 18.8346 10.0002C18.8346 13.1429 18.8346 14.7142 17.8583 15.6905C16.882 16.6668 15.3107 16.6668 12.168 16.6668H8.83463C5.69194 16.6668 4.12059 16.6668 3.14428 15.6905C2.16797 14.7142 2.16797 13.1429 2.16797 10.0002Z" stroke="white" stroke-width="1.2"/>
<path d="M5.5 6.6665L7.29908 8.16574C8.82961 9.44118 9.59488 10.0789 10.5 10.0789C11.4051 10.0789 12.1704 9.44118 13.7009 8.16574L15.5 6.6665" stroke="white" stroke-width="1.2" stroke-linecap="round"/>
</svg>
