<svg width="21" height="20" viewBox="0 0 21 20" fill="none" xmlns="http://www.w3.org/2000/svg">
<path d="M7.81939 15.7077L8.19459 15.2395L7.81939 15.7077ZM10.25 4.80191L9.81431 5.21444C9.92763 5.33412 10.0852 5.40191 10.25 5.40191C10.4148 5.40191 10.5724 5.33412 10.6857 5.21444L10.25 4.80191ZM12.6806 15.7077L13.0558 16.1759L12.6806 15.7077ZM8.19459 15.2395C6.98231 14.268 5.65608 13.3188 4.60386 12.1144C3.57214 10.9334 2.85 9.55256 2.85 7.75923H1.65C1.65 9.92064 2.53564 11.5709 3.70015 12.9039C4.84416 14.2134 6.30261 15.2611 7.44418 16.1759L8.19459 15.2395ZM2.85 7.75923C2.85 6.0009 3.82738 4.53183 5.15289 3.91591C6.43778 3.31886 8.16688 3.47449 9.81431 5.21444L10.6857 4.38939C8.73325 2.3273 6.46235 1.98422 4.64721 2.82766C2.87268 3.65223 1.65 5.56283 1.65 7.75923H2.85ZM7.44418 16.1759C7.85392 16.5042 8.29384 16.8544 8.73975 17.1193C9.18522 17.3839 9.69517 17.6 10.25 17.6V16.4C10.0048 16.4 9.71478 16.3027 9.3526 16.0876C8.99086 15.8727 8.61547 15.5767 8.19459 15.2395L7.44418 16.1759ZM13.0558 16.1759C14.1974 15.2611 15.6558 14.2134 16.7999 12.9039C17.9644 11.5709 18.85 9.92064 18.85 7.75923H17.65C17.65 9.55256 16.9279 10.9334 15.8961 12.1144C14.8439 13.3188 13.5177 14.268 12.3054 15.2395L13.0558 16.1759ZM18.85 7.75923C18.85 5.56283 17.6273 3.65223 15.8528 2.82766C14.0377 1.98422 11.7668 2.3273 9.81431 4.38939L10.6857 5.21444C12.3331 3.47449 14.0622 3.31886 15.3471 3.91591C16.6726 4.53183 17.65 6.0009 17.65 7.75923H18.85ZM12.3054 15.2395C11.8845 15.5767 11.5091 15.8727 11.1474 16.0876C10.7852 16.3027 10.4952 16.4 10.25 16.4V17.6C10.8048 17.6 11.3148 17.3839 11.7603 17.1193C12.2062 16.8544 12.6461 16.5042 13.0558 16.1759L12.3054 15.2395Z" fill="#8D92A0"/>
</svg>
