<svg width="20" height="20" viewBox="0 0 20 20" fill="none" xmlns="http://www.w3.org/2000/svg">
<path d="M7.46941 15.7589L7.84086 15.2877L7.46941 15.7589ZM10.0013 4.58374L9.56901 4.99982C9.68212 5.11734 9.8382 5.18374 10.0013 5.18374C10.1644 5.18374 10.3205 5.11734 10.4336 4.99982L10.0013 4.58374ZM12.5332 15.7589L12.9046 16.2301L12.5332 15.7589ZM7.84086 15.2877C6.5793 14.2932 5.19543 13.3189 4.09785 12.083C3.02084 10.8702 2.26797 9.4531 2.26797 7.61413H1.06797C1.06797 9.8276 1.98986 11.5165 3.20059 12.8798C4.39075 14.2199 5.9076 15.2918 7.09796 16.2301L7.84086 15.2877ZM2.26797 7.61413C2.26797 5.81238 3.2861 4.30015 4.67787 3.66397C6.03183 3.04507 7.84763 3.21137 9.56901 4.99982L10.4336 4.16766C8.4051 2.06013 6.05425 1.7154 4.179 2.57258C2.34157 3.41247 1.06797 5.36342 1.06797 7.61413H2.26797ZM7.09796 16.2301C7.52505 16.5668 7.98195 16.9245 8.4446 17.1949C8.90706 17.4651 9.43232 17.6832 10.0013 17.6832V16.4832C9.73696 16.4832 9.42888 16.3802 9.05003 16.1588C8.67137 15.9375 8.27899 15.6331 7.84086 15.2877L7.09796 16.2301ZM12.9046 16.2301C14.095 15.2918 15.6119 14.2199 16.802 12.8798C18.0127 11.5165 18.9346 9.8276 18.9346 7.61413H17.7346C17.7346 9.4531 16.9818 10.8702 15.9048 12.083C14.8072 13.3189 13.4233 14.2932 12.1617 15.2877L12.9046 16.2301ZM18.9346 7.61413C18.9346 5.36342 17.661 3.41247 15.8236 2.57258C13.9484 1.7154 11.5975 2.06013 9.56901 4.16766L10.4336 4.99982C12.155 3.21137 13.9708 3.04507 15.3247 3.66397C16.7165 4.30015 17.7346 5.81238 17.7346 7.61413H18.9346ZM12.1617 15.2877C11.7236 15.6331 11.3312 15.9375 10.9526 16.1588C10.5737 16.3802 10.2656 16.4832 10.0013 16.4832V17.6832C10.5703 17.6832 11.0955 17.4651 11.558 17.1949C12.0207 16.9245 12.4775 16.5668 12.9046 16.2301L12.1617 15.2877Z" fill="white"/>
</svg>
