<svg width="23" height="24" viewBox="0 0 23 24" fill="none" xmlns="http://www.w3.org/2000/svg">
<path fill-rule="evenodd" clip-rule="evenodd" d="M14.2496 0.616063C14.4905 0.232677 14.9115 0 15.3643 0H21.0045C22.0401 0 22.6704 1.14041 22.1193 2.01725L8.71339 23.3489C8.47245 23.7323 8.05141 23.9649 7.5986 23.9649H1.95842C0.922805 23.9649 0.292581 22.8245 0.84363 21.9477L14.2496 0.616063ZM7.72846 7.1973C7.28853 7.8699 6.28277 7.80445 5.93372 7.08051L3.23424 1.48162C2.90359 0.795845 3.40327 0.000200796 4.1646 0.000201017L10.5262 0.000202861C11.347 0.000203099 11.8399 0.911479 11.3905 1.59842L7.72846 7.1973ZM17.3188 15.8455C16.9515 15.1321 15.9466 15.0917 15.5232 15.7732L11.3918 22.422C10.9643 23.11 11.459 24 12.2691 24L19.8236 24C20.5968 24 21.0958 23.1817 20.7419 22.4943L17.3188 15.8455Z" fill="url(#paint0_linear_922_4970)"/>
<defs>
<linearGradient id="paint0_linear_922_4970" x1="4.31337" y1="-1.78652" x2="24.066" y2="29.3304" gradientUnits="userSpaceOnUse">
<stop stop-color="#D2CBFF"/>
<stop offset="0.499584" stop-color="#7251F0"/>
<stop offset="1" stop-color="#5074FF"/>
</linearGradient>
</defs>
</svg>
