<svg width="20" height="20" viewBox="0 0 20 20" fill="none" xmlns="http://www.w3.org/2000/svg">
<path fill-rule="evenodd" clip-rule="evenodd" d="M2.64233 4.30956C1.66602 5.28587 1.66602 6.85722 1.66602 9.99992C1.66602 13.1426 1.66602 14.714 2.64233 15.6903C3.61864 16.6666 5.18999 16.6666 8.33268 16.6666H11.666C14.8087 16.6666 16.3801 16.6666 17.3564 15.6903C18.3327 14.714 18.3327 13.1426 18.3327 9.99992C18.3327 6.85722 18.3327 5.28587 17.3564 4.30956C16.3801 3.33325 14.8087 3.33325 11.666 3.33325H8.33268C5.18999 3.33325 3.61864 3.33325 2.64233 4.30956ZM15.4795 6.26647C15.7005 6.53164 15.6646 6.92575 15.3995 7.14672L13.5691 8.67206C12.8304 9.28761 12.2318 9.78652 11.7034 10.1264C11.153 10.4804 10.6169 10.704 9.99935 10.704C9.38178 10.704 8.84574 10.4804 8.29533 10.1264C7.76695 9.78652 7.16827 9.28761 6.42965 8.67207L4.59923 7.14672C4.33406 6.92575 4.29823 6.53164 4.51921 6.26647C4.74019 6.0013 5.13429 5.96547 5.39946 6.18645L7.19854 7.68568C7.97601 8.33357 8.51579 8.78193 8.9715 9.07503C9.41263 9.35874 9.71179 9.45398 9.99935 9.45398C10.2869 9.45398 10.5861 9.35874 11.0272 9.07503C11.4829 8.78193 12.0227 8.33357 12.8002 7.68568L14.5992 6.18645C14.8644 5.96547 15.2585 6.0013 15.4795 6.26647Z" fill="#7462E8"/>
</svg>
