<svg width="20" height="20" viewBox="0 0 20 20" fill="none" xmlns="http://www.w3.org/2000/svg">
<path d="M1.66602 9.99992C1.66602 6.85722 1.66602 5.28587 2.64233 4.30956C3.61864 3.33325 5.18999 3.33325 8.33268 3.33325H11.666C14.8087 3.33325 16.3801 3.33325 17.3564 4.30956C18.3327 5.28587 18.3327 6.85722 18.3327 9.99992C18.3327 13.1426 18.3327 14.714 17.3564 15.6903C16.3801 16.6666 14.8087 16.6666 11.666 16.6666H8.33268C5.18999 16.6666 3.61864 16.6666 2.64233 15.6903C1.66602 14.714 1.66602 13.1426 1.66602 9.99992Z" stroke="#8D92A0" stroke-width="1.25"/>
<path d="M5 6.66675L6.79908 8.16598C8.32961 9.44142 9.09488 10.0791 10 10.0791C10.9051 10.0791 11.6704 9.44142 13.2009 8.16598L15 6.66675" stroke="#8D92A0" stroke-width="1.25" stroke-linecap="round"/>
</svg>
