<svg width="24" height="24" viewBox="0 0 24 24" fill="none" xmlns="http://www.w3.org/2000/svg">
<path d="M12.5009 20.5H6.18402C5.01046 20.5 4.0701 19.4817 4.4165 18.3604C5.47137 14.9458 8.27245 12.5 12.0009 12.5C12.7021 12.5 13.3706 12.5865 14.0009 12.7498M20.5009 15.5L18.0009 18M18.0009 18L15.5009 20.5M18.0009 18L15.5009 15.5M18.0009 18L20.5009 20.5M16.0009 6.5C16.0009 8.70914 14.21 10.5 12.0009 10.5C9.79171 10.5 8.00085 8.70914 8.00085 6.5C8.00085 4.29086 9.79171 2.5 12.0009 2.5C14.21 2.5 16.0009 4.29086 16.0009 6.5Z" stroke="#222222" stroke-linecap="round"/>
</svg>
