<svg width="24" height="24" viewBox="0 0 24 24" fill="none" xmlns="http://www.w3.org/2000/svg">
<path d="M7.803 5.03915L7.04432 4.86407C6.43354 4.72313 5.79324 4.90676 5.35 5.35C4.90676 5.79324 4.72313 6.43354 4.86407 7.04432L5.03915 7.803C5.22622 8.6136 4.89196 9.45536 4.19977 9.91682L3.29045 10.523C2.79662 10.8523 2.5 11.4065 2.5 12C2.5 12.5935 2.79662 13.1477 3.29045 13.477L4.19977 14.0832C4.89196 14.5446 5.22622 15.3864 5.03915 16.197L4.86407 16.9557C4.72313 17.5665 4.90676 18.2068 5.35 18.65C5.79324 19.0932 6.43354 19.2769 7.04432 19.1359L7.803 18.9608C8.6136 18.7738 9.45536 19.108 9.91682 19.8002L10.523 20.7096C10.8523 21.2034 11.4065 21.5 12 21.5C12.5935 21.5 13.1477 21.2034 13.477 20.7096L14.0832 19.8002C14.5446 19.108 15.3864 18.7738 16.197 18.9608L16.9557 19.1359C17.5665 19.2769 18.2068 19.0932 18.65 18.65C19.0932 18.2068 19.2769 17.5665 19.1359 16.9557L18.9608 16.197C18.7738 15.3864 19.108 14.5446 19.8002 14.0832L20.7096 13.477C21.2034 13.1477 21.5 12.5935 21.5 12C21.5 11.4065 21.2034 10.8523 20.7096 10.523L19.8002 9.91682C19.108 9.45536 18.7738 8.6136 18.9608 7.803L19.1359 7.04432C19.2769 6.43354 19.0932 5.79324 18.65 5.35C18.2068 4.90676 17.5665 4.72313 16.9557 4.86407L16.197 5.03915C15.3864 5.22622 14.5446 4.89196 14.0832 4.19977L13.477 3.29045C13.1477 2.79662 12.5935 2.5 12 2.5C11.4065 2.5 10.8523 2.79662 10.523 3.29045L9.91682 4.19977C9.45536 4.89196 8.6136 5.22622 7.803 5.03915Z" stroke="#222222" stroke-linejoin="round"/>
<path d="M15 12C15 13.6569 13.6569 15 12 15C10.3431 15 9 13.6569 9 12C9 10.3431 10.3431 9 12 9C13.6569 9 15 10.3431 15 12Z" stroke="#222222" stroke-linejoin="round"/>
</svg>
