<svg width="24" height="24" viewBox="0 0 24 24" fill="none" xmlns="http://www.w3.org/2000/svg">
<path d="M21.5 7.5L18.9339 4.25859C18.5545 3.77943 17.9769 3.5 17.3658 3.5H6.6342C6.02306 3.5 5.44545 3.77943 5.06611 4.25859L2.5 7.5M21.5 7.5V8.5C21.5 9.3885 21.0923 10.1868 20.4444 10.7361M21.5 7.5H2.5M2.5 7.5V8.5C2.5 9.3885 2.90771 10.1868 3.55556 10.7361M15.1667 8.5C15.1667 10.1569 16.5844 11.5 18.3333 11.5C19.1444 11.5 19.8842 11.2111 20.4444 10.7361M15.1667 8.5V7.5M15.1667 8.5C15.1667 10.1569 13.7489 11.5 12 11.5C10.2511 11.5 8.83333 10.1569 8.83333 8.5M8.83333 8.5C8.83333 10.1569 7.41557 11.5 5.66667 11.5C4.85563 11.5 4.1158 11.2111 3.55556 10.7361M8.83333 8.5V7.5M3.55556 10.7361V18.5C3.55556 19.6046 4.45099 20.5 5.55556 20.5H9.5M20.4444 10.7361V18.5C20.4444 19.6046 19.549 20.5 18.4444 20.5H14.5M9.5 20.5V18C9.5 16.6193 10.6193 15.5 12 15.5C13.3807 15.5 14.5 16.6193 14.5 18V20.5M9.5 20.5H14.5" stroke="#222222" stroke-linejoin="round"/>
</svg>
