<svg width="24" height="24" viewBox="0 0 24 24" fill="none" xmlns="http://www.w3.org/2000/svg">
<rect width="24" height="24" rx="4.8" fill="#F8F8F8"/>
<path d="M4.80078 18.5999V16.7999H6.00078V10.7999C6.00078 9.3499 6.44661 8.0749 7.33828 6.9749C8.22995 5.8749 9.38411 5.19157 10.8008 4.9249V3.5999C10.8008 3.26657 10.9174 2.98324 11.1508 2.7499C11.3841 2.51657 11.6674 2.3999 12.0008 2.3999C12.3341 2.3999 12.6174 2.51657 12.8508 2.7499C13.0841 2.98324 13.2008 3.26657 13.2008 3.5999V4.9249C14.6174 5.19157 15.7716 5.8749 16.6633 6.9749C17.5549 8.0749 18.0008 9.3499 18.0008 10.7999V16.7999H19.2008V18.5999H4.80078ZM11.9955 21.5999C11.499 21.5999 11.0758 21.4237 10.7258 21.0712C10.3758 20.7187 10.2008 20.2949 10.2008 19.7999H13.8008C13.8008 20.2999 13.624 20.7249 13.2705 21.0749C12.9169 21.4249 12.4919 21.5999 11.9955 21.5999ZM7.80078 16.7999H16.2008V10.7999C16.2008 9.63324 15.7924 8.64157 14.9758 7.8249C14.1591 7.00824 13.1674 6.5999 12.0008 6.5999C10.8341 6.5999 9.84245 7.00824 9.02578 7.8249C8.20911 8.64157 7.80078 9.63324 7.80078 10.7999V16.7999Z" fill="#222222"/>
</svg>
