<svg width="24" height="24" viewBox="0 0 24 24" fill="none" xmlns="http://www.w3.org/2000/svg">
<path d="M17.9992 9.80256V9.18085C17.9992 5.76726 15.3133 3 12 3C8.68672 3 6.00077 5.76726 6.00077 9.18085V9.80256C6.00077 10.5487 5.78641 11.2781 5.38471 11.8989L4.40032 13.4202C3.50118 14.8097 4.1876 16.6985 5.75143 17.1379C9.84244 18.2874 14.1576 18.2874 18.2486 17.1379C19.8124 16.6985 20.4988 14.8097 19.5997 13.4202L18.6153 11.8989C18.2136 11.2781 17.9992 10.5487 17.9992 9.80256Z" stroke="#222222" stroke-width="1.5"/>
<path d="M8.04883 18C8.63107 19.7478 10.2021 21 12.0488 21C13.8955 21 15.4666 19.7478 16.0488 18" stroke="#222222" stroke-width="1.5" stroke-linecap="round"/>
</svg>
