<svg width="128" height="130" viewBox="0 0 128 130" fill="none" xmlns="http://www.w3.org/2000/svg">
<rect width="103" height="130" fill="#EFEFEF"/>
<circle cx="21" cy="25" r="5" fill="#D9D9D9"/>
<rect x="32" y="20" width="56" height="10" rx="5" fill="#D9D9D9"/>
<rect x="16" y="89" width="72" height="5" rx="2.5" fill="#D9D9D9"/>
<rect x="16" y="104" width="72" height="5" rx="2.5" fill="#D9D9D9"/>
<circle cx="21" cy="47" r="5" fill="#ACACAC"/>
<rect x="32" y="42" width="56" height="10" rx="5" fill="#ACACAC"/>
<path d="M118 119L98 99M58 82.3333C58 85.3975 58.6035 88.4317 59.7761 91.2626C60.9488 94.0935 62.6675 96.6658 64.8342 98.8325C67.0009 100.999 69.5731 102.718 72.4041 103.891C75.235 105.063 78.2692 105.667 81.3333 105.667C84.3975 105.667 87.4317 105.063 90.2626 103.891C93.0935 102.718 95.6658 100.999 97.8325 98.8325C99.9992 96.6658 101.718 94.0935 102.891 91.2626C104.063 88.4317 104.667 85.3975 104.667 82.3333C104.667 79.2692 104.063 76.235 102.891 73.4041C101.718 70.5731 99.9992 68.0009 97.8325 65.8342C95.6658 63.6675 93.0935 61.9488 90.2626 60.7761C87.4317 59.6035 84.3975 59 81.3333 59C78.2692 59 75.235 59.6035 72.4041 60.7761C69.5731 61.9488 67.0009 63.6675 64.8342 65.8342C62.6675 68.0009 60.9488 70.5731 59.7761 73.4041C58.6035 76.235 58 79.2692 58 82.3333Z" stroke="#7462E8" stroke-width="5" stroke-linecap="round" stroke-linejoin="round"/>
</svg>
