<svg width="16" height="17" viewBox="0 0 16 17" fill="none" xmlns="http://www.w3.org/2000/svg">
<rect y="0.5" width="16" height="16" rx="4"/>
<path d="M2.69757 12.8386C1.78851 11.9295 1.33398 11.475 1.33398 10.9102C1.33398 10.3454 1.78851 9.89083 2.69757 8.98177L8.48275 3.19659C9.3918 2.28753 9.84633 1.83301 10.4111 1.83301C10.976 1.83301 11.4305 2.28753 12.3395 3.19659L13.3037 4.16079C14.2128 5.06984 14.6673 5.52437 14.6673 6.08918C14.6673 6.65399 14.2128 7.10852 13.3037 8.01758L7.51855 13.8028C6.6095 14.7118 6.15497 15.1663 5.59016 15.1663C5.02534 15.1663 4.57082 14.7118 3.66176 13.8028L2.69757 12.8386Z" stroke="#41454E"/>
<path d="M5.64258 6.14258L6.58539 7.08539" stroke="#41454E" stroke-linecap="round"/>
<path d="M8.4707 3.31445L9.41351 4.25726" stroke="#41454E" stroke-linecap="round"/>
<path d="M2.81445 8.9707L3.75726 9.91351" stroke="#41454E" stroke-linecap="round"/>
<path d="M4.22852 7.55664L5.64273 8.97085" stroke="#41454E" stroke-linecap="round"/>
<path d="M7.05664 4.72852L8.47085 6.14273" stroke="#41454E" stroke-linecap="round"/>
</svg>
