<svg width="16" height="17" viewBox="0 0 16 17" fill="none" xmlns="http://www.w3.org/2000/svg">
<rect y="0.5" width="16" height="16" rx="4"/>
<path d="M6.52246 2.8331C7.4698 2.38897 8.53144 2.38897 9.47878 2.8331L13.9396 4.92443C14.9099 5.37933 14.9099 6.95403 13.9396 7.40894L9.47884 9.50023C8.5315 9.94437 7.46986 9.94437 6.52252 9.50023L2.06172 7.40891C1.0914 6.954 1.09141 5.3793 2.06172 4.9244L6.52246 2.8331Z" stroke="#41454E"/>
<path d="M1.33398 6.16699V9.83366" stroke="#41454E" stroke-linecap="round"/>
<path d="M12.6673 8.16602V11.583C12.6673 12.255 12.3316 12.8842 11.7438 13.2097C10.7648 13.7518 9.19799 14.4993 8.00065 14.4993C6.80331 14.4993 5.23645 13.7518 4.25754 13.2097C3.66965 12.8842 3.33398 12.255 3.33398 11.583V8.16602" stroke="#41454E" stroke-linecap="round"/>
</svg>
