<svg width="16" height="17" viewBox="0 0 16 17" fill="none" xmlns="http://www.w3.org/2000/svg">
<rect y="0.5" width="16" height="16" rx="4"/>
<path d="M5.33333 9.16634V11.833M10.6667 3.83301V4.16634C10.6667 4.51996 10.8071 4.8591 11.0572 5.10915C11.3072 5.3592 11.6464 5.49967 12 5.49967C12.3536 5.49967 12.6928 5.64015 12.9428 5.8902C13.1929 6.14025 13.3333 6.47939 13.3333 6.83301V7.16634M2 9.83301C2 9.6562 2.07024 9.48663 2.19526 9.3616C2.32029 9.23658 2.48986 9.16634 2.66667 9.16634H13.3333C13.5101 9.16634 13.6797 9.23658 13.8047 9.3616C13.9298 9.48663 14 9.6562 14 9.83301V11.1663C14 11.3432 13.9298 11.5127 13.8047 11.6377C13.6797 11.7628 13.5101 11.833 13.3333 11.833H2.66667C2.48986 11.833 2.32029 11.7628 2.19526 11.6377C2.07024 11.5127 2 11.3432 2 11.1663V9.83301Z" stroke="#41454E" stroke-linecap="round" stroke-linejoin="round"/>
</svg>
