<svg width="16" height="17" viewBox="0 0 16 17" fill="none" xmlns="http://www.w3.org/2000/svg">
<rect y="0.5" width="16" height="16" rx="4"/>
<path d="M8.50065 10.6904C8.50065 10.4143 8.27679 10.1904 8.00065 10.1904C7.72451 10.1904 7.50065 10.4143 7.50065 10.6904H8.50065ZM10.5007 15C10.7768 15 11.0007 14.7761 11.0007 14.5C11.0007 14.2238 10.7768 14 10.5007 14V15ZM5.50065 14C5.22451 14 5.00065 14.2238 5.00065 14.5C5.00065 14.7761 5.22451 15 5.50065 15V14ZM7.50065 10.6904V14.5H8.50065V10.6904H7.50065ZM10.5007 14H8.00065V15H10.5007V14ZM8.00065 14H5.50065V15H8.00065V14ZM4.59714 3H11.4042V2H4.59714V3ZM12.1673 3.76316V5.83333H13.1673V3.76316H12.1673ZM3.83398 5.83333V3.76316H2.83398V5.83333H3.83398ZM8.00065 10C5.69946 10 3.83398 8.13452 3.83398 5.83333H2.83398C2.83398 8.6868 5.14718 11 8.00065 11V10ZM12.1673 5.83333C12.1673 8.13452 10.3018 10 8.00065 10V11C10.8541 11 13.1673 8.6868 13.1673 5.83333H12.1673ZM11.4042 3C11.8256 3 12.1673 3.34168 12.1673 3.76316H13.1673C13.1673 2.78939 12.3779 2 11.4042 2V3ZM4.59714 2C3.62338 2 2.83398 2.78939 2.83398 3.76316H3.83398C3.83398 3.34168 4.17566 3 4.59714 3V2Z" fill="#41454E"/>
<path d="M3.66602 6.49958C3.66602 6.49958 5.05345 5.89108 5.99935 5.83291C7.64284 5.73183 8.35586 7.26732 9.99935 7.16624C10.9452 7.10807 12.3327 6.49958 12.3327 6.49958" stroke="#41454E" stroke-linecap="round"/>
</svg>
